<!-- Generated by IcoMoon.io -->
<svg version="1.1" xmlns="http://www.w3.org/2000/svg" width="1024" height="1024" viewBox="0 0 1024 1024">
<title></title>
<g id="icomoon-ignore">
</g>
<path fill="#e50914" d="M229.973 0.171l202.667 574.293v-0.299l16.043 45.227c89.088 252.075 136.96 387.2 137.216 387.499 0.171 0 13.653 0.853 29.952 1.707 49.323 2.133 110.507 7.68 156.843 13.227 10.667 1.28 19.883 1.707 20.48 1.28l-200.96-570.027-18.603-52.48-103.381-292.267c-19.627-55.467-36.267-102.741-37.12-104.533l-1.323-3.797zM592.981 0.512l-0.427 226.389-0.341 226.389-18.645-52.565v-0.085l-24.107 503.893c23.68 66.859 36.352 102.528 36.48 102.699 0.171 0.171 13.653 1.024 29.952 1.792 49.365 2.133 110.507 7.68 157.013 13.227 10.667 1.28 19.925 1.707 20.48 1.28s0.853-231.253 0.725-512.427l-0.341-510.677zM229.973 0.085v511.573c0 281.344 0.299 511.787 0.64 512.128s17.749-1.28 38.699-3.669c20.907-2.56 49.92-5.547 64.427-6.827 22.101-2.133 88.235-6.4 95.915-6.4 2.219 0 2.389-11.52 2.688-216.747l0.341-216.747 16.213 45.227 5.547 16.043 24.32-503.467-8.107-23.296-37.547-104.107-1.28-3.712z"></path>
</svg>
